HIERARCHY
ROOT Hips
{
	OFFSET -3.958830 18.904000 13.208200
	CHANNELS 6 Xposition Yposition Zposition Zrotation Yrotation Xrotation 
	JOINT LHipJoint
	{
		OFFSET 0.000000 0.000000 0.000000
		CHANNELS 3 Zrotation Yrotation Xrotation
		JOINT LeftUpLeg
		{
			OFFSET 1.800000 -1.400000 0.085000
			CHANNELS 3 Zrotation Yrotation Xrotation
			JOINT LeftLeg
			{
				OFFSET 2.215000 -6.000000 0.000000
				CHANNELS 3 Zrotation Yrotation Xrotation
				JOINT LeftFoot
				{
					OFFSET 2.500000 -6.900000 0.000000
					CHANNELS 3 Zrotation Yrotation Xrotation
					JOINT LeftToeBase
					{
						OFFSET 0.200000 -0.500000 1.950000
						CHANNELS 3 Zrotation Yrotation Xrotation
						End Site
						{
							OFFSET 0.000000 0.000000 0.000000
						}
					}
				}
			}
		}
	}
	JOINT RHipJoint
	{
		OFFSET 0.000000 0.000000 0.000000
		CHANNELS 3 Zrotation Yrotation Xrotation
		JOINT RightUpLeg
		{
			OFFSET -1.800000 -1.400000 0.085000
			CHANNELS 3 Zrotation Yrotation Xrotation
			JOINT RightLeg
			{
				OFFSET -2.215000 -6.000000 0.000000
				CHANNELS 3 Zrotation Yrotation Xrotation
				JOINT RightFoot
				{
					OFFSET -2.500000 -6.900000 0.000000
					CHANNELS 3 Zrotation Yrotation Xrotation
					JOINT RightToeBase
					{
						OFFSET -0.200000 -0.500000 1.950000
						CHANNELS 3 Zrotation Yrotation Xrotation
						End Site
						{
							OFFSET 0.000000 0.000000 0.000000
						}
					}
				}
			}
		}
	}
	JOINT LowerBack
	{
		OFFSET 0.000000 0.000000 0.000000
		CHANNELS 3 Zrotation Yrotation Xrotation
		JOINT Spine
		{
			OFFSET -0.087000 1.940000 -0.288900
			CHANNELS 3 Zrotation Yrotation Xrotation
			JOINT Spine1
			{
				OFFSET 0.000000 1.950000 0.060000
				CHANNELS 3 Zrotation Yrotation Xrotation
				JOINT Neck
				{
					OFFSET 0.000000 0.000000 0.000000
					CHANNELS 3 Zrotation Yrotation Xrotation
					JOINT Neck1
					{
						OFFSET 0.000000 1.600000 0.340000
						CHANNELS 3 Zrotation Yrotation Xrotation
						JOINT Head
						{
							OFFSET 0.000000 1.667000 -0.240000
							CHANNELS 3 Zrotation Yrotation Xrotation
							End Site
							{
								OFFSET 0.000000 0.000000 0.000000
							}
						}
					}
				}
				JOINT LeftShoulder
				{
					OFFSET 0.000000 0.000000 0.000000
					CHANNELS 3 Zrotation Yrotation Xrotation
					JOINT LeftArm
					{
						OFFSET 2.700000 1.550000 -0.730000
						CHANNELS 3 Zrotation Yrotation Xrotation
						JOINT LeftForeArm
						{
							OFFSET 5.450000 0.000000 0.000000
							CHANNELS 3 Zrotation Yrotation Xrotation
							JOINT LeftHand
							{
								OFFSET 3.450000 0.000000 0.000000
								CHANNELS 3 Zrotation Yrotation Xrotation
								JOINT LeftHandIndex1
								{
									OFFSET 0.750000 0.000000 0.000000
									CHANNELS 3 Zrotation Yrotation Xrotation
									End Site
									{
										OFFSET 0.000000 0.000000 0.000000
									}
								}
							}
						}
					}
				}
				JOINT RightShoulder
				{
					OFFSET 0.000000 0.000000 0.000000
					CHANNELS 3 Zrotation Yrotation Xrotation
					JOINT RightArm
					{
						OFFSET -2.700000 1.550000 -0.730000
						CHANNELS 3 Zrotation Yrotation Xrotation
						JOINT RightForeArm
						{
							OFFSET -5.450000 0.000000 0.000000
							CHANNELS 3 Zrotation Yrotation Xrotation
							JOINT RightHand
							{
								OFFSET -3.450000 0.000000 0.000000
								CHANNELS 3 Zrotation Yrotation Xrotation
								JOINT RightHandIndex1
								{
									OFFSET -0.750000 0.000000 0.000000
									CHANNELS 3 Zrotation Yrotation Xrotation
									End Site
									{
										OFFSET 0.000000 0.000000 0.000000
									}
								}
							}
						}
					}
				}
			}
		}
	}
}
MOTION
Frames: 9
Frame Time: 0.016667
-0.245330 15.953800 -6.487260 -4.306070 -60.234287 1.535790 -16.009965 10.464338 6.305564 36.286364 2.789229 -36.271537 -26.460818 15.164105 19.966072 0.504202 8.940831 1.018504 0.352290 0.331420 0.476140 18.000121 -7.911743 3.069497 -35.331955 5.396357 -16.657479 36.543995 -22.426537 32.071634 -1.449527 -8.921991 1.048769 0.132610 -0.350600 0.025660 -3.709225 -3.284247 -9.688818 11.102686 -4.404533 29.125614 -6.610347 -0.864090 -6.745827 3.106150 -8.349864 -8.688730 -24.495064 27.540603 45.855411 -9.598360 24.107430 -11.249160 -37.348945 -2.084088 -0.083719 -39.386676 9.110097 -6.692120 -15.156614 -8.042577 -0.737963 -3.400959 2.910833 0.458640 -0.195630 0.357780 -0.057560 30.855984 6.430456 3.633019 42.614173 -4.437105 -12.768066 35.949869 40.147709 9.011233 2.440117 -1.465352 -0.015780 0.032200 -0.127890 -0.274030 
-0.253860 15.942050 -6.448010 -4.113935 -60.516663 1.496432 -15.988411 10.454674 6.251702 35.824153 2.972219 -36.583653 -26.068879 15.525361 20.867665 0.512159 8.979463 0.997066 0.349690 0.324390 0.486070 18.015721 -7.923798 3.134224 -36.178771 5.552171 -16.506896 37.260968 -22.378834 31.285740 -1.448298 -8.899598 1.047310 0.122100 -0.367260 0.027860 -3.849550 -3.168161 -9.695125 12.098969 -4.811451 28.382235 -7.599529 -1.355633 -7.938536 3.399974 -7.800823 -7.853400 -23.199067 27.635860 49.269368 -9.547540 24.482300 -9.661360 -40.004448 -1.102102 -0.823492 -41.646823 10.104248 -6.903307 -8.229691 -7.370057 -0.735865 -3.430769 2.847570 0.461340 -0.196620 0.366680 -0.064990 32.644400 4.513229 2.757710 45.972037 -4.561820 -13.652454 34.290781 41.625231 8.864653 2.446283 -1.450085 -0.008760 0.013960 -0.131350 -0.280720 
-0.252300 15.982750 -6.420320 -4.214597 -60.762755 1.720652 -15.946925 10.567240 6.103020 34.718142 3.018332 -36.757636 -24.642652 15.402954 21.518080 0.478437 8.814878 1.040043 0.341660 0.310570 0.486710 18.025008 -8.048090 3.132984 -35.768439 5.676520 -16.432707 36.433154 -21.569061 30.608621 -1.385188 -8.720575 1.089755 0.110370 -0.377530 0.031370 -3.958124 -3.078538 -9.584892 13.200565 -4.954717 27.142411 -7.864309 -1.552683 -7.243155 3.575154 -7.558604 -7.669806 -22.852099 27.669942 51.258132 -9.842510 24.393920 -7.943110 -40.065346 -0.536896 -1.022770 -44.387381 10.405909 -7.967709 -8.295011 -9.183498 -0.710880 -3.424740 2.862801 0.451130 -0.193970 0.365850 -0.071310 32.196685 3.574826 2.541879 49.095541 -4.150255 -13.992035 39.197662 45.248563 11.543997 2.478892 -1.495200 0.000310 -0.006710 -0.131640 -0.280050 
-0.260360 16.057740 -6.382280 -4.926465 -61.118539 2.533290 -15.848084 10.799493 5.773029 32.897725 2.821626 -35.865013 -22.124620 14.231148 20.621395 0.382281 8.238370 1.225587 0.327000 0.292930 0.466470 18.047817 -8.384460 3.084019 -34.288795 5.632333 -16.285223 34.098108 -20.200642 30.120417 -1.268783 -8.405778 1.183055 0.097730 -0.364800 0.034060 -4.192945 -2.828407 -9.290639 15.180550 -5.011309 25.083443 -8.266205 -1.656881 -5.125286 3.611159 -7.825464 -7.964275 -23.493757 27.877727 50.920849 -9.978100 23.967690 -6.451840 -37.708220 0.247743 -0.738799 -46.947043 10.826046 -9.709532 -13.430593 -13.116288 -0.467476 -3.404189 2.924719 0.426690 -0.183180 0.349640 -0.068700 29.594791 2.969596 2.765327 52.178093 -3.467025 -13.353319 50.017117 48.658943 16.974170 2.540465 -1.571702 0.008840 -0.017240 -0.125110 -0.266410 
-0.285840 16.153630 -6.342320 -6.106918 -61.330662 4.030119 -15.696432 11.156078 5.294642 30.453896 2.426544 -34.456380 -18.429385 12.259825 18.550728 0.248068 7.278104 1.567168 0.272460 0.235280 0.400700 18.084604 -8.905150 2.980808 -31.747511 5.358989 -16.080533 30.476759 -18.389130 29.713801 -1.087134 -7.945649 1.348460 0.067140 -0.299680 0.031510 -4.486490 -2.478122 -8.849451 17.445734 -4.761533 22.071836 -8.641320 -1.631175 -2.381812 3.560306 -8.360107 -8.455486 -23.849110 27.708940 48.325616 -9.404860 23.531170 -4.337490 -33.530327 1.535331 -0.210468 -49.430993 11.589725 -11.366669 -20.936293 -16.288385 0.123837 -3.450340 2.975006 0.376940 -0.142140 0.295160 -0.059220 25.392185 2.285006 3.267483 55.352938 -3.058743 -12.132222 64.954317 52.239248 25.559243 2.611586 -1.662550 0.000440 -0.015020 -0.097660 -0.239180 
-0.299110 16.302040 -6.291820 -7.330987 -60.976354 5.423490 -15.458905 11.611760 4.707344 27.141212 1.706193 -32.689585 -14.027177 9.786759 15.594370 0.107113 5.982926 2.052260 0.202690 0.152070 0.326410 18.154288 -9.624970 2.854462 -28.612180 4.724084 -15.139230 26.125421 -15.875591 28.024392 -0.849541 -7.215414 1.615025 0.023400 -0.223050 0.029960 -4.835938 -1.924803 -8.313863 20.112305 -4.086171 18.713051 -9.466836 -1.222592 0.508166 3.699780 -8.475445 -9.238178 -22.554666 26.379769 46.896704 -7.833780 22.618730 -1.383680 -29.028769 1.974886 0.792332 -50.881954 12.275502 -12.444568 -28.332266 -18.702906 1.026123 -3.507054 3.030526 0.327430 -0.096190 0.231310 -0.050060 20.538492 2.377097 4.127421 58.321978 -2.484963 -10.769161 79.048211 53.794566 34.090392 2.663730 -1.748007 -0.015620 -0.018900 -0.067440 -0.212540 
-0.294270 16.496270 -6.272710 -7.812868 -60.365589 5.794564 -15.230763 12.128599 4.192665 23.675004 0.956812 -30.993461 -9.664050 7.598514 12.935719 -0.020264 4.760050 2.522270 0.153020 0.103530 0.268750 18.209782 -10.328875 2.688790 -25.285878 3.829200 -13.791174 21.197552 -13.170239 25.760328 -0.620139 -6.328516 1.953259 0.000130 -0.160630 0.029360 -5.000931 -1.495417 -7.827586 21.296253 -3.271896 16.478424 -9.701923 -0.711433 3.145325 3.659665 -8.357890 -10.055688 -20.844443 25.467352 45.414772 -6.352390 22.235110 -0.059290 -24.753027 1.584250 2.026596 -50.960819 12.535265 -12.860176 -35.664066 -21.007462 2.323253 -3.552927 3.095874 0.293600 -0.058000 0.186720 -0.044960 16.476686 3.155824 4.852182 59.609402 -1.213140 -8.970265 93.343183 54.091557 43.631196 2.672160 -1.818817 -0.030400 -0.012180 -0.039950 -0.193510 
-0.280710 16.725010 -6.286240 -7.562434 -59.969511 5.470212 -15.068931 12.596656 3.805898 20.258292 0.226679 -28.964131 -6.050113 5.745835 9.834963 -0.115291 3.750253 2.929508 0.129490 0.079870 0.236360 18.231034 -10.842399 2.567177 -22.249656 2.870278 -12.472835 16.892707 -10.724104 22.791789 -0.439246 -5.459527 2.296594 -0.008220 -0.126890 0.032370 -4.991376 -1.315123 -7.466070 21.009603 -2.518698 15.006008 -9.031805 -0.313710 5.335906 3.432057 -8.362115 -10.879377 -20.090715 24.741113 43.926533 -5.827430 21.784800 0.496870 -21.033983 0.788941 3.284579 -50.074851 12.572062 -12.718017 -43.327760 -23.448100 4.179724 -3.569716 3.188089 0.265720 -0.034280 0.156760 -0.040190 13.491054 4.447253 5.476390 59.089774 0.479933 -6.963098 107.028166 54.339078 54.951956 2.655960 -1.866858 -0.035080 -0.015450 -0.027690 -0.180750 
-0.253640 16.958090 -6.299710 -6.987995 -59.828471 4.613534 -14.975576 12.975002 3.547315 17.194018 -0.373442 -26.589898 -4.004229 4.713688 7.996384 -0.175105 3.178455 3.177552 0.132780 0.085420 0.240610 18.231011 -11.194974 2.468247 -19.794442 2.018528 -11.522499 12.797599 -8.762510 20.342066 -0.319550 -4.746515 2.581396 -0.001230 -0.124770 0.041920 -4.894619 -1.276779 -7.204142 20.144945 -2.002800 14.275800 -7.822240 -0.195373 7.377005 3.234157 -8.444981 -11.504553 -19.822362 24.419359 42.741359 -6.884090 21.900270 0.000610 -17.723201 0.200919 4.325396 -48.862898 12.233680 -12.156688 -51.171785 -26.661609 6.978885 -3.567674 3.289616 0.244350 -0.019420 0.148740 -0.038470 10.875592 5.481853 5.801435 56.990187 2.881974 -5.051380 122.319877 55.607458 72.243131 2.604927 -1.837136 -0.029240 -0.025080 -0.031950 -0.178780 
